<svg width="42" height="42" viewBox="0 0 42 42" fill="none" xmlns="http://www.w3.org/2000/svg">
<path fill-rule="evenodd" clip-rule="evenodd" d="M12.6139 27.4174L27.4174 12.6139C27.7719 12.2596 28.3502 12.2596 28.7046 12.6139L29.866 13.7754C30.2204 14.1298 30.2204 14.708 29.866 15.0625L15.0625 29.866C14.708 30.2204 14.1298 30.2204 13.7754 29.866L12.6139 28.7046C12.2596 28.3502 12.2596 27.7719 12.6139 27.4174Z" fill="#FF3C76"/>
<path fill-rule="evenodd" clip-rule="evenodd" d="M27.4174 29.866L12.6139 15.0625C12.2596 14.708 12.2596 14.1298 12.6139 13.7754L13.7754 12.6139C14.1298 12.2596 14.708 12.2596 15.0625 12.6139L29.866 27.4174C30.2204 27.7719 30.2204 28.3502 29.866 28.7046L28.7046 29.866C28.3502 30.2204 27.7719 30.2204 27.4174 29.866Z" fill="#FF3C76"/>
<path d="M21.2398 0.76001C26.8941 0.76001 32.0141 3.05299 35.7205 6.75928C39.4268 10.4657 41.7198 15.5857 41.7198 21.24C41.7198 26.8943 39.4268 32.0143 35.7205 35.7207C32.0141 39.427 26.8941 41.72 21.2398 41.72C15.5855 41.72 10.4655 39.427 6.75903 35.7207C3.05275 32.0143 0.759766 26.8943 0.759766 21.24C0.759766 15.5857 3.05275 10.4657 6.75903 6.75928C10.4655 3.05299 15.5855 0.76001 21.2398 0.76001ZM33.3072 9.17253C30.2187 6.08414 25.9519 4.17334 21.2398 4.17334C16.5276 4.17334 12.2608 6.08414 9.17229 9.17253C6.08389 12.2611 4.1731 16.5279 4.1731 21.24C4.1731 25.9522 6.08389 30.219 9.17229 33.3075C12.2608 36.3959 16.5276 38.3067 21.2398 38.3067C25.9519 38.3067 30.2187 36.3959 33.3072 33.3075C36.3956 30.219 38.3064 25.9522 38.3064 21.24C38.3064 16.5279 36.3956 12.2611 33.3072 9.17253Z" fill="#FF3C76"/>
</svg>
